<svg width="38" height="32" viewBox="0 0 38 32" fill="none" xmlns="http://www.w3.org/2000/svg">
<path d="M11.875 6.005V8.005H34.4375V11.9641L31.8027 19.005H11.1278L8.15902 1.00256H1.1875V3.00256H6.09098L9.05973 21.005H33.5445L36.8125 12.2717V6.005H11.875Z" fill="#E16A00"/>
<path d="M13.1355 23.0215C11.8762 23.0227 10.6688 23.4445 9.77832 24.1944C8.88784 24.9443 8.38693 25.961 8.3855 27.0215C8.3855 28.0824 8.88594 29.0998 9.77674 29.8499C10.6675 30.6001 11.8757 31.0215 13.1355 31.0215C14.3953 31.0215 15.6035 30.6001 16.4943 29.8499C17.3851 29.0998 17.8855 28.0824 17.8855 27.0215C17.8841 25.961 17.3832 24.9443 16.4927 24.1944C15.6022 23.4445 14.3948 23.0227 13.1355 23.0215V23.0215ZM13.1355 29.0215C12.6658 29.0215 12.2066 28.9042 11.816 28.6844C11.4255 28.4647 11.121 28.1523 10.9413 27.7869C10.7615 27.4214 10.7145 27.0193 10.8061 26.6313C10.8978 26.2433 11.124 25.887 11.4561 25.6073C11.7883 25.3276 12.2115 25.1371 12.6722 25.0599C13.1329 24.9827 13.6104 25.0224 14.0444 25.1737C14.4783 25.3251 14.8493 25.5814 15.1102 25.9103C15.3712 26.2392 15.5105 26.6259 15.5105 27.0215C15.5097 27.5517 15.2593 28.0601 14.8141 28.435C14.3688 28.8099 13.7652 29.0209 13.1355 29.0215V29.0215Z" fill="#E16A00"/>
<path d="M29.7605 23.0215C28.5012 23.0227 27.2938 23.4445 26.4033 24.1944C25.5128 24.9443 25.0119 25.961 25.0105 27.0215C25.0105 28.0824 25.5109 29.0998 26.4017 29.8499C27.2925 30.6001 28.5007 31.0215 29.7605 31.0215C31.0203 31.0215 32.2285 30.6001 33.1193 29.8499C34.0101 29.0998 34.5105 28.0824 34.5105 27.0215C34.5091 25.961 34.0082 24.9443 33.1177 24.1944C32.2272 23.4445 31.0198 23.0227 29.7605 23.0215V23.0215ZM29.7605 29.0215C29.2908 29.0215 28.8316 28.9042 28.441 28.6844C28.0505 28.4647 27.746 28.1523 27.5663 27.7869C27.3865 27.4214 27.3395 27.0193 27.4311 26.6313C27.5228 26.2433 27.749 25.887 28.0811 25.6073C28.4133 25.3276 28.8365 25.1371 29.2972 25.0599C29.7579 24.9827 30.2354 25.0224 30.6694 25.1737C31.1033 25.3251 31.4743 25.5814 31.7352 25.9103C31.9962 26.2392 32.1355 26.6259 32.1355 27.0215C32.1348 27.5517 31.8843 28.0601 31.4391 28.435C30.9938 28.8099 30.3902 29.0209 29.7605 29.0215V29.0215Z" fill="#E16A00"/>
</svg>
