<svg width="42" height="42" viewBox="0 0 42 42" fill="none" xmlns="http://www.w3.org/2000/svg">
<g clip-path="url(#clip0_1_245)">
<path d="M39.0037 14.9044C38.8339 13.6276 38.81 11.4286 39.9958 10.6902C40.017 10.6767 40.0328 10.6571 40.0514 10.6403C41.0209 10.3302 41.6919 9.89504 41.1652 9.30943L26.8633 5.00012L3.70522 8.21982C3.70522 8.21982 1.05333 8.59886 1.29023 12.7189C1.41883 14.9613 2.12213 16.0626 2.73719 16.6046L0.836863 17.1772C0.309419 17.7629 0.980256 18.1982 1.94991 18.5078C1.96834 18.5251 1.98388 18.5445 2.00544 18.558C3.19056 19.2971 3.16775 21.4958 2.99728 22.7728C-1.26025 23.9818 0.268056 24.3757 0.268056 24.3757L1.20199 24.6017C0.545064 25.1954 -0.107347 26.3211 0.0148627 28.456C0.251887 32.5753 2.4301 32.8596 2.4301 32.8596L17.5846 37.7854L40.4585 32.2449C40.4585 32.2449 41.9873 31.8503 37.7286 30.6413C37.5574 29.3663 37.5336 27.1678 38.7215 26.4269C38.7433 26.4137 38.7592 26.3938 38.7769 26.3772C39.7465 26.0671 40.4169 25.6323 39.89 25.0467L38.8958 24.7465C39.5589 24.3467 40.5549 23.3017 40.7109 20.5872C40.8186 18.7201 40.3315 17.6266 39.7677 16.9828L41.7328 16.5073C41.733 16.508 43.2618 16.1135 39.0037 14.9044ZM19.8711 14.8516L23.7176 14.0611L36.7167 11.3898L38.6534 10.9914C38.0346 12.124 38.0605 13.674 38.1629 14.6703C38.1854 14.8956 38.2112 15.1014 38.2363 15.2579L36.1165 15.7849L19.7094 19.8665L19.8711 14.8516ZM3.34799 18.8605L5.28442 19.2588L17.7682 21.8251L18.8588 22.0485L22.1294 22.7207L22.2907 27.7357L5.42781 23.5403L3.76538 23.1272C3.78982 22.9705 3.81565 22.7649 3.83908 22.5389C3.94086 21.5435 3.96731 19.9931 3.34799 18.8605ZM2.59568 12.5206C2.57224 11.4247 2.76753 10.6322 3.16223 10.2293C3.41342 9.97213 3.70986 9.9186 3.91316 9.9186C4.02058 9.9186 4.09792 9.93352 4.10318 9.93352L14.0814 13.1866L19.0596 14.8096L18.8963 19.8596L4.93032 15.9441L4.1933 15.7377C4.16623 15.73 4.1295 15.7248 4.10118 15.7235C4.04364 15.7194 2.66286 15.5923 2.59568 12.5206ZM17.6207 35.5975L2.91806 31.4754C2.89086 31.4675 2.85451 31.4623 2.82619 31.4609C2.76765 31.457 1.38624 31.33 1.31943 28.2591C1.29562 27.1619 1.49191 26.3701 1.88586 25.9668C2.13768 25.7096 2.43424 25.6561 2.63717 25.6561C2.74484 25.6561 2.82192 25.6705 2.82756 25.6705C2.82756 25.6705 2.82819 25.6705 2.82756 25.6705L17.783 30.5474L17.6207 35.5975ZM36.8866 30.4074C36.9098 30.6335 36.9356 30.8389 36.9607 30.9956L18.4334 35.6046L18.5954 30.5896L22.5563 29.7753L23.1413 29.9168L25.3338 29.2042L35.4404 27.1274L37.3778 26.7288C36.7584 27.8613 36.784 29.4119 36.8866 30.4074ZM37.9071 23.5918C37.8734 23.5926 37.8397 23.5971 37.808 23.6071L36.4106 23.9983L23.1057 27.729L22.943 22.6791L27.3082 21.2553L37.878 17.8082C37.8794 17.8076 38.4341 17.6844 38.8412 18.0984C39.2353 18.5013 39.4308 19.2938 39.4077 20.3897C39.3388 23.4603 37.9574 23.5879 37.9071 23.5918Z" fill="#4D2900"/>
</g>
<defs>
<clipPath id="clip0_1_245">
<rect width="42" height="42" fill="white"/>
</clipPath>
</defs>
</svg>
