<svg width="63" height="63" viewBox="0 0 63 63" fill="none" xmlns="http://www.w3.org/2000/svg">
<g clip-path="url(#clip0_209_76)">
<path d="M61.6877 17.0808C61.3309 15.8083 60.6361 14.6562 59.6769 13.7471C58.6907 12.81 57.4819 12.1396 56.1647 11.7993C51.2349 10.5 31.4844 10.5 31.4844 10.5C23.2507 10.4063 15.0189 10.8183 6.83566 11.7337C5.5184 12.0991 4.31188 12.7845 3.32341 13.7287C2.35216 14.6632 1.64866 15.8156 1.28116 17.0782C0.398349 21.834 -0.0305782 26.663 0.000155262 31.5C-0.0313447 36.3326 0.39653 41.16 1.28116 45.9217C1.64078 47.1791 2.34166 48.3262 3.31553 49.2528C4.28941 50.1795 5.50216 50.8488 6.83566 51.2032C11.831 52.5 31.4844 52.5 31.4844 52.5C39.7286 52.5938 47.9709 52.1817 56.1647 51.2662C57.4819 50.9259 58.6907 50.2556 59.6769 49.3185C60.6482 48.3918 61.3385 47.2395 61.685 45.9847C62.5909 41.2307 63.0313 36.3998 63.0002 31.5603C63.0683 26.7004 62.6284 21.8467 61.6877 17.0782V17.0808ZM25.2054 40.488V22.5146L41.6379 31.5026L25.2054 40.488Z" fill="#241400"/>
</g>
<defs>
<clipPath id="clip0_209_76">
<rect width="63" height="63" fill="white"/>
</clipPath>
</defs>
</svg>
